<svg width="24" height="24" viewBox="0 0 24 24" fill="none" xmlns="http://www.w3.org/2000/svg">
<path fill-rule="evenodd" clip-rule="evenodd" d="M1 7C1 5.34315 2.34315 4 4 4H20C21.6569 4 23 5.34315 23 7V17C23 18.6569 21.6569 20 20 20H4C2.34315 20 1 18.6569 1 17V7ZM4 6C3.44772 6 3 6.44772 3 7V17C3 17.5523 3.44772 18 4 18H20C20.5523 18 21 17.5523 21 17V7C21 6.44772 20.5523 6 20 6H4Z" fill="black"/>
<path fill-rule="evenodd" clip-rule="evenodd" d="M22.0007 6.42759L21.6902 6.72371C21.6573 6.75503 21.6224 6.78408 21.5856 6.81065L12.5856 13.3106C12.2361 13.5631 11.7641 13.5631 11.4146 13.3106L2.41461 6.81065C2.35901 6.7705 2.3077 6.72473 2.26147 6.67408L1.99121 6.37795L3.46848 5.02974L3.66921 5.24968L12.0001 11.2664L20.3594 5.22919L20.6206 4.9801L22.0007 6.42759Z" fill="black"/>
</svg>
